<?xml version="1.0" standalone="no"?>
<!DOCTYPE svg PUBLIC "-//W3C//DTD SVG 20010904//EN"
 "http://www.w3.org/TR/2001/REC-SVG-20010904/DTD/svg10.dtd">
<svg version="1.0" xmlns="http://www.w3.org/2000/svg"
 width="403.000000pt" height="403.000000pt" viewBox="0 0 403.000000 403.000000"
 preserveAspectRatio="xMidYMid meet">
<metadata>
Created by potrace 1.14, written by Peter Selinger 2001-2017
</metadata>
<g transform="translate(0.000000,403.000000) scale(0.100000,-0.100000)"
fill="#000000" stroke="none">
<path d="M0 2015 l0 -2015 2015 0 2015 0 0 2015 0 2015 -2015 0 -2015 0 0
-2015z m848 1795 c179 -23 357 -85 479 -168 86 -59 177 -160 205 -229 23 -58
23 -60 28 -614 5 -539 6 -558 25 -580 36 -42 59 -58 115 -81 49 -20 77 -22
260 -26 235 -5 311 5 388 49 93 53 86 8 92 639 5 545 5 556 27 610 44 109 155
215 297 284 174 86 302 115 544 123 l172 6 0 -44 0 -45 -90 -12 c-153 -21
-265 -76 -325 -161 l-30 -43 -3 -1530 c-1 -1015 1 -1542 8 -1568 12 -46 50
-84 115 -118 40 -20 69 -26 148 -30 94 -5 97 -5 97 -28 l0 -24 -625 0 -625 0
0 25 c0 22 4 25 38 25 88 0 188 47 229 109 l23 34 0 717 0 717 -23 34 c-70
105 -340 164 -564 125 -157 -27 -244 -70 -278 -137 -23 -43 -22 -1436 0 -1479
31 -60 149 -120 235 -120 36 0 40 -2 40 -25 l0 -25 -625 0 -625 0 0 25 c0 24
2 25 78 25 129 1 235 50 272 126 20 40 20 59 18 1575 -3 1404 -4 1537 -20
1564 -29 53 -90 107 -153 136 -62 28 -190 59 -245 59 -29 0 -30 2 -30 45 l0
45 123 0 c67 0 160 -5 205 -10z"/>
</g>
</svg>
